
v 1.000000 1.000000 1.000000
v -1.000000 1.000000 1.000000
v -1.000000 -1.000000 1.000000
v 1.000000 -1.000000 1.000000
v 1.000000 1.000000 -1.000000
v -1.000000 1.000000 -1.000000
v -1.000000 -1.000000 -1.000000
v 1.000000 -1.000000 -1.000000
vn -0.0000 -0.0000 1.0000
vn -0.0000 1.0000 -0.0000
vn 1.0000 -0.0000 -0.0000
vn -1.0000 -0.0000 -0.0000
vn -0.0000 -1.0000 -0.0000
vn -0.0000 -0.0000 -1.0000
s 0
f 1//1 2//1 3//1
f 3//1 4//1 1//1
f 1//2 5//2 6//2
f 6//2 2//2 1//2
f 1//3 4//3 8//3
f 8//3 5//3 1//3
f 2//4 6//4 7//4
f 7//4 3//4 2//4
f 3//5 7//5 8//5
f 8//5 4//5 3//5
f 5//6 8//6 7//6
f 7//6 6//6 5//6
