# Blender 4.2.3 LTS
# www.blender.org
mtllib objeto.mtl
o cubo
v 1.000000 1.000000 1.000000
v -1.000000 1.000000 1.000000
v -1.000000 -1.000000 1.000000
v 1.000000 -1.000000 1.000000
v 1.000000 1.000000 -1.000000
v -1.000000 1.000000 -1.000000
v -1.000000 -1.000000 -1.000000
v 1.000000 -1.000000 -1.000000
vn -0.0000 -0.0000 1.0000
vn -0.0000 1.0000 -0.0000
vn 1.0000 -0.0000 -0.0000
vn -1.0000 -0.0000 -0.0000
vn -0.0000 -1.0000 -0.0000
vn -0.0000 -0.0000 -1.0000
vt 0.000000 0.000000
vt 1.000000 0.000000
vt 1.000000 1.000000
s 0
g cubo_Material.004
usemtl Material.004
f 1/1/1 2/1/1 3/1/1
f 3/1/1 4/1/1 1/1/1
f 1/1/2 5/2/2 6/3/2
f 6/1/2 2/1/2 1/1/2
f 1/1/3 4/1/3 8/1/3
f 8/1/3 5/1/3 1/1/3
f 2/1/4 6/1/4 7/1/4
f 7/1/4 3/1/4 2/1/4
f 3/1/5 7/1/5 8/1/5
f 8/1/5 4/1/5 3/1/5
f 5/1/6 8/1/6 7/1/6
f 7/1/6 6/1/6 5/1/6
