v 1 0 0.25
v 1 0 -0.25
v 0.766044 -0.642788 0.25
v 0.766044 -0.642788 -0.25
v 0.173648 -0.984808 0.25
v 0.173648 -0.984808 -0.25
v -0.5 -0.866025 0.25
v -0.5 -0.866025 -0.25
v -0.939693 -0.34202 0.25
v -0.939693 -0.34202 -0.25
v -0.939693 0.34202 0.25
v -0.939693 0.34202 -0.25
v -0.5 0.866025 0.25
v -0.5 0.866025 -0.25
v 0.173648 0.984808 0.25
v 0.173648 0.984808 -0.25
v 0.766044 0.642788 0.25
v 0.766044 0.642788 -0.25
v 0 0 0.25
v 0 0 -0.25
vn 0.9397 -0.342 -0
vn 0.5 -0.866 -0
vn -0.1736 -0.9848 -0
vn -0.766 -0.6428 -0
vn -1 0 0
vn -0.766 0.6428 0
vn -0.1736 0.9848 0
vn 0.5 0.866 0
vn 0.9397 0.342 0
vn 0 0 1
vn 0 0 -1
f 1//1 3//1 2//1
f 2//1 3//1 4//1
f 3//2 5//2 4//2
f 4//2 5//2 6//2
f 5//3 7//3 6//3
f 6//3 7//3 8//3
f 7//4 9//4 8//4
f 8//4 9//4 10//4
f 9//5 11//5 10//5
f 10//5 11//5 12//5
f 11//6 13//6 12//6
f 12//6 13//6 14//6
f 13//7 15//7 14//7
f 14//7 15//7 16//7
f 15//8 17//8 16//8
f 16//8 17//8 18//8
f 17//9 1//9 18//9
f 18//9 1//9 2//9
f 19//10 3//10 1//10
f 20//11 2//11 4//11
f 19//10 5//10 3//10
f 20//11 4//11 6//11
f 19//10 7//10 5//10
f 20//11 6//11 8//11
f 19//10 9//10 7//10
f 20//11 8//11 10//11
f 19//10 11//10 9//10
f 20//11 10//11 12//11
f 19//10 13//10 11//10
f 20//11 12//11 14//11
f 19//10 15//10 13//10
f 20//11 14//11 16//11
f 19//10 17//10 15//10
f 20//11 16//11 18//11
f 19//10 1//10 17//10
f 20//11 18//11 2//11
